<svg width="114" height="24" viewBox="0 0 114 24" fill="none" xmlns="http://www.w3.org/2000/svg">
    <rect width="24" height="24" rx="4" fill="black"/>
    <path d="M4.04466 13.1449C4.45742 15.9545 6.15972 17.6667 10.0125 17.6667C12.5778 17.6667 13.6897 14.5364 12.7151 13.1449C11.8743 11.9444 8.17508 13.9093 7.52631 12.6051C7.01767 11.5826 7.33753 10.5904 8.12698 9.7647C9.16321 8.68086 11.2749 9.04274 11.9949 9.53043C12.715 10.0181 13.5344 17.6667 15.5506 17.6667C17.5669 17.6667 20 12.5339 20 9.53042C20 7.65381 18.6128 6.12841 17.6422 8.10382C17.0594 9.29004 16.3071 15.776 15.5506 15.776C14.7942 15.776 15.5407 11.5515 14.0295 9.53042C13.3753 8.65551 12.9727 8.10414 11.9949 7.5986C11.135 7.15398 9.57535 7.0282 9.57535 7.0282C6.19682 6.64216 3.6265 10.2985 4.04466 13.1449Z" fill="white"/>
    <path d="M34.9335 11.0831C34.957 11.0596 35.0924 11.036 35.3397 11.0125C35.5987 10.9772 35.8989 10.8712 36.2404 10.6946C36.2522 10.6946 36.2463 10.5533 36.2227 10.2707C36.1874 9.77622 36.158 9.423 36.1344 9.21107C36.1109 8.9285 36.0873 8.72834 36.0638 8.6106C36.0638 8.38689 35.9755 7.92182 35.7989 7.21539L35.0218 9.84686C34.8569 10.5768 34.7922 11.0243 34.8275 11.1891L34.9335 11.0831ZM32.5493 11.5953L32.6552 10.8182C32.6552 10.6652 32.6788 10.5121 32.7259 10.359C32.7259 10.1589 32.8259 9.85864 33.0261 9.45832C33.0261 9.43477 33.0791 9.28171 33.185 8.99914C33.185 8.97559 33.2969 8.62826 33.5206 7.95715L33.7325 7.44498C33.7325 7.39788 33.762 7.30958 33.8208 7.18007C33.8797 7.03878 33.9209 6.90338 33.9445 6.77387C33.9798 6.63258 34.021 6.49718 34.0681 6.36766C34.2329 6.04977 34.3801 5.77897 34.5096 5.55526C34.7569 5.08431 35.216 4.87237 35.8872 4.91947L36.4523 4.97245C36.8055 5.06664 37.0763 5.16672 37.2647 5.27269C37.5355 5.37865 37.718 5.49639 37.8122 5.62591C37.9064 5.74365 37.9476 5.9438 37.9358 6.22638C37.9476 6.36766 37.9829 6.97991 38.0418 8.06311C38.1007 9.14631 38.1301 9.6938 38.1301 9.70557L38.2184 10.465C38.2184 10.5356 38.3479 11.3834 38.6069 13.0082L38.9955 14.2444C39.231 14.9038 39.3546 15.2511 39.3664 15.2864C39.3899 15.31 39.4429 15.4336 39.5253 15.6573C39.6548 16.0458 39.543 16.3049 39.1898 16.4344C38.8719 16.4815 38.6364 16.452 38.4833 16.3461C38.4244 16.3461 38.289 16.2931 38.0771 16.1871C38.0536 16.1283 37.9829 16.0694 37.8652 16.0105C37.7592 15.9634 37.6886 15.9222 37.6533 15.8869C37.5237 15.8516 37.406 15.6691 37.3 15.3394C37.2647 15.3159 37.2 15.2217 37.1058 15.0568C37.0233 14.892 36.9998 14.7566 37.0351 14.6506C36.9527 14.5447 36.9115 14.3268 36.9115 13.9972C36.8055 13.8206 36.7525 13.5439 36.7525 13.1671C36.7525 12.7903 36.6937 12.496 36.5759 12.2841C35.9755 12.5549 35.3338 12.702 34.6509 12.7256C34.5214 12.7256 34.4566 12.7491 34.4566 12.7962C34.4566 12.9022 34.4213 13.0906 34.3507 13.3614L34.0504 15.3041C34.1682 16.1754 34.0622 16.6345 33.7325 16.6816C33.6383 16.6816 33.4794 16.7052 33.2557 16.7523C33.0438 16.7994 32.8672 16.7582 32.7259 16.6286C32.4551 16.4756 32.2608 16.3166 32.1431 16.1518C32.0371 15.9987 31.99 15.8221 32.0018 15.622C32.0135 15.4571 32.043 15.1039 32.0901 14.5623C32.1136 14.5388 32.1195 14.4093 32.1077 14.1738C32.1077 13.9265 32.1254 13.7381 32.1607 13.6086L32.4433 12.5137C32.4786 12.4901 32.5257 12.3135 32.5846 11.9838C32.5728 11.9603 32.5669 11.9014 32.5669 11.8072L32.5493 11.5953Z" fill="black"/>
    <path d="M40.7403 10.6416C40.7403 10.5356 40.7285 10.412 40.705 10.2707V10.1471C40.7168 10.0647 40.7109 9.97638 40.6873 9.88218C40.6873 9.76444 40.6991 9.65848 40.7227 9.56429C40.7227 9.32881 40.7521 9.17575 40.811 9.1051C40.811 9.04623 40.8934 8.91083 41.0582 8.6989C41.1053 8.65181 41.1936 8.57528 41.3231 8.46931C41.5115 8.41044 41.641 8.37512 41.7117 8.36335C41.7588 8.31625 41.9177 8.33391 42.1885 8.41633C42.3063 8.4281 42.4888 8.46931 42.736 8.53995C42.8184 8.5635 42.9244 8.65769 43.0539 8.82253C43.0304 8.86963 42.9891 9.04623 42.9303 9.35236C42.8832 9.6467 42.8655 9.88807 42.8773 10.0765C42.9479 10.0176 43.0716 9.89396 43.2482 9.70557C43.4248 9.51719 43.519 9.41711 43.5307 9.40534C43.8369 9.26405 44.1371 9.16397 44.4315 9.1051C44.8553 9.06978 45.132 9.09922 45.2615 9.19341C45.3675 9.22873 45.4499 9.28171 45.5088 9.35236C45.6147 9.44655 45.703 9.61138 45.7737 9.84686C45.8443 10.0706 45.8384 10.2119 45.756 10.2707C45.6854 10.3296 45.4499 10.3767 45.0496 10.412C45.026 10.412 44.9436 10.4591 44.8023 10.5533L43.884 11.2774C43.6956 11.3716 43.5661 11.454 43.4954 11.5246L43.1599 12.1428C43.1481 12.1663 43.1363 12.3194 43.1245 12.602C43.1128 12.8845 43.1128 13.0906 43.1245 13.2201C43.1363 13.3378 43.1363 13.7323 43.1245 14.4034V15.1628C43.1245 15.5749 43.1187 15.8104 43.1069 15.8692C43.0951 15.9399 43.048 16.0576 42.9656 16.2224C42.9303 16.2813 42.8184 16.3108 42.63 16.3108C42.1709 16.6522 41.8765 16.6345 41.747 16.2578L41.5174 16.1165C41.4232 16.0694 41.3643 16.0105 41.3408 15.9399C41.2466 15.8104 41.1995 15.7338 41.1995 15.7103L41.1289 15.463L41.0229 15.2511C40.9876 15.2393 40.9581 15.0156 40.9346 14.58C40.911 14.1326 40.8993 13.8618 40.8993 13.7676C40.8993 13.6616 40.8875 13.5498 40.864 13.432C40.9464 13.3496 40.9817 13.2083 40.9699 13.0082C40.9699 12.808 40.9581 12.6549 40.9346 12.549C40.911 12.4312 40.911 12.3606 40.9346 12.337C40.9581 12.3017 40.9523 12.1369 40.9169 11.8425C40.8816 11.7954 40.8757 11.7071 40.8993 11.5776L40.7403 10.6416Z" fill="black"/>
    <path d="M49.8329 5.23737C49.8094 5.53171 49.7976 5.74953 49.7976 5.89082C49.7976 6.02033 49.7917 6.13807 49.7799 6.24404V6.70322L49.7623 6.82685V7.19773C49.7623 7.30369 49.7564 7.40966 49.7446 7.51562L50.3628 7.392C50.4098 7.392 50.5806 7.36256 50.8749 7.30369C51.1693 7.24482 51.4342 7.22127 51.6697 7.23305C51.9169 7.23305 52.0817 7.28014 52.1642 7.37434C52.2584 7.46853 52.3055 7.60393 52.3055 7.78054C52.329 7.92182 52.2878 8.05722 52.1818 8.18674L52.1112 8.2927C52.017 8.44576 51.8816 8.54584 51.705 8.59294L51.0869 8.68124L50.2921 8.87551L49.8153 9.05212C49.827 9.34647 49.8447 9.67025 49.8682 10.0235C49.9036 10.3767 49.9212 10.6239 49.9212 10.7652L49.9742 11.4187C50.1273 12.4548 50.3274 13.5144 50.5747 14.5976C50.6453 14.7036 50.7219 14.945 50.8043 15.3217L50.9456 15.6926C50.9927 16.0929 50.7454 16.2931 50.2038 16.2931C50.1096 16.2931 49.8741 16.2695 49.4974 16.2224C49.3914 16.2107 49.2383 16.1047 49.0382 15.9046C49.0382 15.881 48.9734 15.8045 48.8439 15.675L48.5084 14.8626C48.4848 14.8272 48.4554 14.7154 48.4201 14.527C48.2905 14.3975 48.1846 14.1031 48.1022 13.644C48.1022 13.6204 48.0904 13.5615 48.0668 13.4673V13.2201C47.9844 13.1377 47.9255 12.9081 47.8902 12.5313C47.8549 12.1546 47.8137 11.8013 47.7666 11.4717C47.7666 11.0125 47.7313 10.571 47.6606 10.1471L47.6253 9.75856V9.59961C47.6371 9.48187 47.6371 9.423 47.6253 9.423H47.4134C47.2368 9.44655 47.0896 9.44655 46.9719 9.423C46.4538 9.423 46.0947 9.27583 45.8945 8.98148C45.7533 8.66358 45.7474 8.45754 45.8769 8.36335C46.0064 8.26915 46.3243 8.17496 46.8306 8.08077C47.0543 8.08077 47.3427 8.00424 47.696 7.85118C47.696 7.55683 47.7136 7.392 47.7489 7.35667C47.7843 7.08587 47.8196 6.91515 47.8549 6.84451C47.902 6.76209 47.9314 6.67967 47.9432 6.59726C47.955 6.31468 48.0551 5.89671 48.2434 5.34333C48.3141 5.07253 48.3788 4.89004 48.4377 4.79584C48.5908 4.57214 48.9087 4.5015 49.3914 4.58391C49.5916 4.61923 49.7387 4.69577 49.8329 4.81351C49.8682 4.80173 49.8682 4.94302 49.8329 5.23737Z" fill="black"/>
    <path d="M58.682 12.5137C58.6114 12.6785 58.576 12.8021 58.576 12.8845C58.576 12.967 58.5525 13.0906 58.5054 13.2554C58.4465 13.3732 58.4583 13.5615 58.5407 13.8206C58.5407 14.0325 58.5643 14.2621 58.6114 14.5093C58.6585 14.7801 58.7291 14.9803 58.8233 15.1098L59.0529 15.1275C59.0293 15.1039 59.0588 15.0745 59.1412 15.0392C59.2707 14.9921 59.3472 14.9509 59.3708 14.9155C59.4061 14.8684 59.4944 14.786 59.6357 14.6683C59.7888 14.5505 59.9006 14.4269 59.9712 14.2974C60.0301 14.1443 60.1361 13.9736 60.2891 13.7852C60.5129 13.3378 60.7189 12.6196 60.9073 11.6306C61.0015 11.3716 61.0486 11.1773 61.0486 11.0478C61.0603 10.9065 61.0309 10.7535 60.9603 10.5886L60.6777 10.3767C60.454 10.3767 60.2597 10.4591 60.0949 10.6239L59.7593 10.8889C59.6534 10.9595 59.5827 11.0301 59.5474 11.1008C59.3826 11.2068 59.2059 11.4363 59.0176 11.7896C59.0176 11.8013 58.994 11.8367 58.9469 11.8955C58.9116 11.9544 58.8704 12.0662 58.8233 12.2311C58.7409 12.337 58.6938 12.4312 58.682 12.5137ZM57.2868 9.38768C57.2868 9.12865 57.3103 8.90495 57.3574 8.71656C57.4045 8.52818 57.4281 8.28093 57.4281 7.97481C57.4281 7.66868 57.4457 7.28603 57.4811 6.82685V6.54427C57.4693 6.50895 57.4811 6.40299 57.5164 6.22638C57.4811 5.87316 57.4869 5.62002 57.534 5.46696V5.29035C57.5105 5.07842 57.534 4.91947 57.6047 4.81351C57.7342 4.66044 57.9226 4.53093 58.1698 4.42497C58.4289 4.319 58.6349 4.26013 58.788 4.24836H58.8763C58.9234 4.2719 58.9646 4.28956 58.9999 4.30134C59.047 4.30134 59.1471 4.33666 59.3001 4.4073C59.4414 4.5015 59.5003 4.64867 59.4767 4.84883C59.4885 4.91947 59.4944 4.996 59.4944 5.07842C59.4944 5.16084 59.4238 5.75542 59.2825 6.86217C59.1412 7.95715 59.0529 8.6989 59.0176 9.08744L58.9999 9.8292C59.047 9.8292 59.0882 9.79977 59.1235 9.7409C59.1353 9.6938 59.1883 9.6467 59.2825 9.59961C59.306 9.55251 59.3472 9.51719 59.4061 9.49364C59.4767 9.45832 59.5474 9.41123 59.618 9.35236C59.9477 9.04623 60.4069 8.89317 60.9956 8.89317C61.184 8.89317 61.3429 8.93438 61.4724 9.0168L61.7373 9.15809L62.3201 9.37002C62.5085 9.48776 62.6145 9.58195 62.638 9.65259L62.8147 10.3414C62.8382 10.4709 62.85 10.7181 62.85 11.0831C62.85 11.4363 62.8147 11.7071 62.744 11.8955C62.744 12.0133 62.7087 12.1781 62.638 12.39C62.638 12.5078 62.5968 12.7668 62.5144 13.1671C62.432 13.5674 62.3084 13.9383 62.1435 14.2797C62.0847 14.3386 62.0258 14.4505 61.9669 14.6153C61.9198 14.7684 61.7785 14.9626 61.5431 15.1981C61.4371 15.1981 61.337 15.2923 61.2428 15.4807C61.1251 15.5984 60.9014 15.7338 60.5717 15.8869C60.1243 16.0753 59.8476 16.1695 59.7417 16.1695C59.6357 16.1695 59.5297 16.1754 59.4238 16.1871C59.3296 16.2107 59.2001 16.2224 59.0352 16.2224C58.8822 16.2224 58.7468 16.2401 58.629 16.2754C58.5113 16.3225 58.317 16.2931 58.0462 16.1871C58.0109 16.1518 57.8402 16.0812 57.534 15.9752C57.2397 15.8692 57.0807 15.7103 57.0572 15.4983C56.963 15.3924 56.91 15.257 56.8983 15.0921C56.8865 14.9155 56.8688 14.7801 56.8453 14.6859C56.8335 14.5918 56.8276 14.4151 56.8276 14.1561C56.8158 13.9677 56.8453 13.4673 56.9159 12.6549C56.9512 12.1722 57.016 11.56 57.1102 10.8182C57.1455 10.6416 57.2044 10.1648 57.2868 9.38768Z" fill="black"/>
    <path d="M66.4473 10.2884C66.4473 10.4768 66.4355 10.6416 66.412 10.7829C66.4002 10.9242 66.3943 11.0125 66.3943 11.0478C66.3943 11.4128 66.3766 11.6836 66.3413 11.8602C66.3178 12.025 66.306 12.1604 66.306 12.2664V13.0611C66.306 13.744 66.3295 14.1561 66.3766 14.2974C66.4237 14.4269 66.5061 14.5152 66.6239 14.5623C66.7534 14.5976 66.8535 14.5918 66.9241 14.5447C66.9948 14.4858 67.0595 14.4034 67.1184 14.2974C67.189 14.1797 67.242 14.0502 67.2773 13.9089C67.3244 13.7558 67.3892 13.5969 67.4716 13.432C67.554 13.2554 67.6011 13.1318 67.6129 13.0611C67.6364 12.9787 67.6894 12.8786 67.7718 12.7609C67.9367 12.1251 68.0309 11.3892 68.0544 10.5533V9.98815C68.078 9.51719 68.1663 9.12276 68.3193 8.80487C68.4018 8.61649 68.6431 8.46342 69.0434 8.34569L69.3083 8.32802C69.5438 8.32802 69.6969 8.36335 69.7675 8.43399C69.8382 8.77543 69.8441 9.25816 69.7852 9.88218V11.1008C69.8087 11.6895 69.8205 12.0957 69.8205 12.3194C69.8087 12.4018 69.8146 13.0965 69.8382 14.4034C69.8264 14.4151 69.8264 14.5682 69.8382 14.8626C69.8499 15.0509 69.8323 15.463 69.7852 16.0988C69.7499 16.7346 69.7322 17.1173 69.7322 17.2468C69.6027 17.965 69.4555 18.4595 69.2907 18.7303C69.1376 19.0011 68.9257 19.2366 68.6549 19.4367C68.4665 19.6251 68.131 19.7546 67.6482 19.8253C67.6129 19.8135 67.5187 19.8076 67.3656 19.8076C66.6592 19.737 66.2 19.5957 65.9881 19.3837C65.3641 19.0659 64.9991 18.8304 64.8931 18.6773C64.7989 18.536 64.7401 18.4006 64.7165 18.2711C64.693 18.1416 64.7283 17.9238 64.8225 17.6177C64.9991 17.394 65.2287 17.3527 65.5113 17.494C65.629 17.5529 65.8409 17.6706 66.147 17.8473L66.7299 18.1298C66.8123 18.2005 66.8947 18.2064 66.9771 18.1475C67.0948 18.0768 67.1655 18.0415 67.189 18.0415C67.3892 17.8767 67.5835 17.6177 67.7718 17.2644C67.7718 17.1467 67.8307 16.9701 67.9485 16.7346C67.9485 16.4991 68.0191 16.1518 68.1604 15.6926V15.4983C68.1604 15.3217 68.1722 15.1746 68.1957 15.0568C68.2193 14.9273 68.231 14.8272 68.231 14.7566C68.1368 14.9332 68.0603 15.098 68.0014 15.2511C67.9426 15.4042 67.8719 15.5337 67.7895 15.6396C67.7777 15.7103 67.6541 15.7809 67.4186 15.8516L66.7652 15.8692C66.7652 15.8575 66.7299 15.8516 66.6592 15.8516L66.3943 15.8339C65.7703 15.8339 65.3759 15.7515 65.211 15.5867C65.1286 15.4807 65.0285 15.3806 64.9108 15.2864C64.8048 15.1569 64.7401 14.9921 64.7165 14.7919C64.6812 14.7566 64.6576 14.6565 64.6459 14.4917V14.2974L64.6105 14.0855C64.6223 14.0619 64.6105 13.9795 64.5752 13.8382C64.5517 13.6969 64.5399 13.4673 64.5399 13.1495V12.9375C64.5399 11.8896 64.5517 11.3422 64.5752 11.2951C64.6105 11.2244 64.6282 11.1597 64.6282 11.1008C64.6047 11.0419 64.6105 10.9772 64.6459 10.9065L64.6812 10.6593L64.8578 10.1118C64.8578 10.0647 64.8931 9.91751 64.9638 9.67025C65.0344 9.59961 65.0756 9.51719 65.0874 9.423C65.1345 9.1993 65.158 9.04623 65.158 8.96382C65.1698 8.8814 65.2228 8.76955 65.317 8.62826C65.4583 8.52229 65.6643 8.48697 65.9351 8.52229C66.2177 8.54584 66.4591 8.66358 66.6592 8.87551L66.4649 9.65259C66.4767 9.73501 66.4826 9.80565 66.4826 9.86452L66.4473 10.2884Z" fill="black"/>
    <path d="M77.7334 7.76288L77.8924 8.6106V9.0168C77.9983 9.3347 78.0749 9.65848 78.122 9.98815C78.3103 11.0714 78.4163 11.6954 78.4399 11.8602C78.4634 12.025 78.487 12.1781 78.5105 12.3194C78.5458 12.4607 78.5517 12.5431 78.5282 12.5666C78.5399 12.6608 78.5458 12.7432 78.5458 12.8139C78.5576 12.8728 78.5694 12.9257 78.5811 12.9728C78.6047 13.0082 78.6224 13.0317 78.6341 13.0435C78.6577 13.0553 78.6812 13.0494 78.7048 13.0258C78.7754 12.9787 78.8755 12.7374 79.005 12.3017C79.1463 12.0074 79.2405 11.7366 79.2876 11.4893C79.3111 11.348 79.3641 11.1243 79.4465 10.8182C79.5289 10.571 79.6055 10.3355 79.6761 10.1118C79.7585 9.91162 79.8174 9.69969 79.8527 9.47598C79.888 9.2405 79.9057 9.11099 79.9057 9.08744C79.9175 9.05212 79.941 8.99325 79.9764 8.91083C80.0941 8.56939 80.153 8.31036 80.153 8.13375C80.153 7.94537 80.1765 7.74521 80.2236 7.53328C80.2236 7.23894 80.306 6.84451 80.4709 6.35C80.4709 6.32646 80.5062 6.18517 80.5768 5.92614C80.6475 5.65534 80.7358 5.40809 80.8417 5.18438C81.0301 4.68988 81.3716 4.35432 81.8661 4.17771C82.0662 4.11884 82.284 4.08941 82.5195 4.08941C82.7668 4.08941 82.9316 4.11884 83.014 4.17771C83.1082 4.23658 83.1612 4.3661 83.173 4.56625C83.1494 4.6369 83.1318 4.74875 83.12 4.90181L82.5725 6.59726L82.3429 7.18007L82.131 7.60393C82.131 7.62748 82.1016 7.69812 82.0427 7.81586L81.8661 8.39867C81.8425 8.57528 81.8131 8.69302 81.7778 8.75189L81.4775 9.7409C81.4304 9.78799 81.3892 9.92928 81.3539 10.1648C81.2597 10.4827 81.1773 10.7064 81.1067 10.8359C81.0242 11.0714 80.983 11.2362 80.983 11.3304C80.983 11.4246 80.9536 11.56 80.8947 11.7366C80.8359 11.9014 80.7946 11.9956 80.7711 12.0192C80.7593 12.0309 80.7358 12.1075 80.7005 12.2487C80.6651 12.39 80.6475 12.5313 80.6475 12.6726C80.6004 12.6962 80.5768 12.8021 80.5768 12.9905C80.5062 13.1436 80.4591 13.3614 80.4355 13.644C80.3767 13.7499 80.3413 13.903 80.3296 14.1031C80.2118 14.5505 80.0588 14.9038 79.8704 15.1628C79.682 15.41 79.4112 15.5631 79.058 15.622C78.7048 15.7044 78.4575 15.7044 78.3162 15.622C78.2691 15.6337 78.1926 15.622 78.0866 15.5867C78.0278 15.5867 77.9866 15.5749 77.963 15.5513C77.8806 15.5513 77.7511 15.4984 77.5745 15.3924C77.445 15.3453 77.3272 15.2688 77.2213 15.1628C77.1271 15.0451 77.0211 14.9097 76.9034 14.7566C76.8798 14.6977 76.8092 14.58 76.6914 14.4034C76.6561 14.0973 76.609 13.9148 76.5501 13.8559C76.5266 13.797 76.5148 13.7558 76.5148 13.7323L76.4089 13.3084C76.4206 13.3202 76.4324 13.3437 76.4442 13.379C76.4206 13.0376 76.4147 12.755 76.4265 12.5313C76.3794 12.4136 76.3794 12.237 76.4265 12.0015C76.4265 11.8131 76.4089 11.6483 76.3735 11.507C76.244 11.1773 76.1734 10.9477 76.1616 10.8182C76.1616 10.6887 76.1439 10.4827 76.1086 10.2001C76.1086 9.89396 76.0968 9.62904 76.0733 9.40534L75.7731 7.70989C75.7024 7.33313 75.673 7.11531 75.6848 7.05644C75.6965 6.9858 75.6965 6.94459 75.6848 6.93281C75.6848 6.90927 75.6789 6.86806 75.6671 6.80919C75.6671 6.75032 75.6612 6.67379 75.6494 6.57959C75.567 6.39121 75.5199 6.23815 75.5081 6.12041C75.0843 5.08431 75.1667 4.50738 75.7554 4.38964C75.826 4.3661 75.9791 4.35432 76.2146 4.35432C76.4618 4.35432 76.6208 4.3661 76.6914 4.38964C76.7621 4.40142 76.8504 4.44263 76.9563 4.51327C77.2271 4.6781 77.4214 5.33744 77.5392 6.49129C77.6333 7.10354 77.6863 7.45087 77.6981 7.53328C77.7216 7.60393 77.7334 7.68046 77.7334 7.76288Z" fill="black"/>
    <path d="M84.809 4.77818C85.5978 4.77818 86.1512 4.93713 86.4691 5.25503C86.4691 5.45518 86.3337 5.86139 86.0629 6.47363C86.0158 6.67379 85.9393 6.83273 85.8333 6.95047L85.6037 7.18007C85.5448 7.21539 85.486 7.23305 85.4271 7.23305C85.0032 7.33901 84.6736 7.2566 84.4381 6.9858C84.391 6.91515 84.3321 6.86217 84.2615 6.82685C84.2026 6.79153 84.1555 6.68556 84.1202 6.50895C84.0142 6.35589 83.9612 6.23815 83.9612 6.15573C83.9377 5.42575 84.2026 4.96657 84.756 4.77818H84.809ZM84.6677 8.94616C84.7854 8.88729 85.0621 8.94616 85.4977 9.12276C85.5448 9.16986 85.6155 9.21696 85.7097 9.26405L85.9922 9.49364C86.0393 9.54074 86.0629 9.61727 86.0629 9.72324V11.2774C86.0629 11.5129 86.0511 11.7248 86.0276 11.9132V12.0192C85.9922 12.5019 86.0217 13.591 86.1159 15.2864C86.1512 15.6161 86.0747 15.8162 85.8863 15.8869C85.6861 15.8869 85.5566 15.8575 85.4977 15.7986C85.4506 15.775 85.4094 15.7633 85.3741 15.7633H85.2505L85.1445 15.7986C85.1092 15.7986 85.0444 15.775 84.9502 15.7279C84.8561 15.6691 84.7913 15.6102 84.756 15.5513C84.7324 15.4925 84.6853 15.4571 84.6147 15.4454C84.4852 15.3983 84.4145 15.31 84.4028 15.1805C84.2379 14.8626 84.1496 14.6742 84.1378 14.6153C84.1378 14.5564 84.1202 14.4917 84.0849 14.421L83.9966 12.8845C83.9966 12.7079 84.0083 12.5725 84.0319 12.4783V12.0545C84.0437 11.925 84.0554 11.6895 84.0672 11.348C84.079 10.9948 84.0966 10.7122 84.1202 10.5003C84.0966 10.1942 84.0849 9.98815 84.0849 9.88218C84.0849 9.77622 84.0907 9.69969 84.1025 9.65259C83.973 9.52308 83.9789 9.34647 84.1202 9.12276C84.2732 9.00503 84.4204 8.94616 84.5617 8.94616H84.6677Z" fill="black"/>
    <path d="M88.6866 6.87983C88.4982 6.87983 88.3628 6.86806 88.2804 6.84451C88.1745 6.85628 88.0862 6.82096 88.0155 6.73854C87.9331 6.64435 87.7918 6.5325 87.5917 6.40299L87.5387 6.2617C87.4562 6.12041 87.415 6.00856 87.415 5.92614C87.3915 5.77308 87.5446 5.41398 87.8742 4.84883C88.0155 4.41319 88.3157 4.13062 88.7749 4.0011H88.8103C88.9869 3.98933 89.2223 4.07175 89.5167 4.24836C89.658 4.28368 89.7757 4.4073 89.8699 4.61923L89.711 5.59058C89.5697 6.14396 89.3224 6.57371 88.9692 6.87983H88.6866ZM88.5277 8.41633C88.8103 8.34569 89.0987 8.34569 89.3931 8.41633C89.4873 8.41633 89.6285 8.46931 89.8169 8.57528C89.9111 8.85785 89.9523 9.02269 89.9406 9.06978C89.9877 9.25816 90.0289 9.62904 90.0642 10.1824C90.0995 10.724 90.1289 11.142 90.1525 11.4363C90.3055 13.3908 90.3821 14.5093 90.3821 14.7919L90.3291 15.4807C90.3291 16.2695 90.2702 16.7935 90.1525 17.0525C90.1643 17.0996 90.1466 17.2115 90.0995 17.3881C90.0524 17.5647 90.0171 17.6765 89.9935 17.7236C89.97 17.7825 89.9582 17.8178 89.9582 17.8296C89.9111 17.9473 89.8699 18.0474 89.8346 18.1298C89.811 18.224 89.7875 18.3064 89.7639 18.3771C89.7051 18.4948 89.6403 18.6126 89.5697 18.7303C89.5697 18.7656 89.4873 18.8775 89.3224 19.0659C89.2636 19.2425 89.0222 19.4485 88.5983 19.684C88.0096 20.0254 87.3267 20.0902 86.5497 19.8783C86.4908 19.89 86.4555 19.89 86.4437 19.8783C86.3966 19.8312 86.22 19.7664 85.9139 19.684C85.8668 19.578 85.7255 19.4662 85.49 19.3484L85.3134 19.2425C85.3134 19.1718 85.2722 19.0541 85.1898 18.8892C85.0838 18.5831 85.0308 18.4183 85.0308 18.3947L85.0838 18.1122C85.072 18.0297 85.125 17.9356 85.2428 17.8296C85.3487 17.7236 85.4723 17.6706 85.6136 17.6706C85.7431 17.6706 85.9198 17.7825 86.1435 18.0062C86.2612 18.2064 86.3789 18.3418 86.4967 18.4124C86.7557 18.4359 86.9147 18.4477 86.9735 18.4477L87.5033 18.5007C87.8683 18.277 88.0803 18.0533 88.1391 17.8296C88.1627 17.7472 88.1803 17.6883 88.1921 17.653C88.2157 17.5941 88.251 17.3881 88.2981 17.0348C88.2981 16.717 88.3452 16.3755 88.4394 16.0105C88.5336 15.6455 88.5689 15.3688 88.5453 15.1805L88.5807 15.0038C88.5807 14.8037 88.5865 14.633 88.5983 14.4917C88.6336 14.2562 88.5924 13.903 88.4747 13.432C88.4865 13.3849 88.4865 13.3025 88.4747 13.1848C88.4276 13.0317 88.3982 12.8963 88.3864 12.7786L88.3511 12.2664L88.1391 11.2244L88.0332 10.2177C88.0096 9.75856 88.0155 9.3759 88.0508 9.06978C88.0979 8.76366 88.2569 8.54584 88.5277 8.41633Z" fill="black"/>
    <path d="M95.8245 11.2421C95.8363 11.2068 95.8599 11.0007 95.8952 10.6239C95.8716 10.5886 95.8422 10.4591 95.8069 10.2354C95.7127 10.047 95.589 9.90573 95.436 9.81154C95.2476 9.72912 95.1358 9.68791 95.1004 9.68791C94.9945 9.72324 94.9179 9.76444 94.8708 9.81154C94.8355 9.84686 94.7354 10.0117 94.5706 10.306C94.4175 10.6004 94.288 11.089 94.1821 11.7719C94.0879 12.4548 94.0408 12.9493 94.0408 13.2554C94.0408 13.5615 94.0526 13.9383 94.0761 14.3857C94.0996 14.8213 94.1938 15.0274 94.3587 15.0038C94.5117 14.9803 94.7237 14.5564 94.9945 13.7323C95.0062 13.6734 95.0474 13.5674 95.1181 13.4144L95.8245 11.2421ZM97.8909 10.518C97.8909 11.142 97.9556 11.713 98.0851 12.2311C98.144 12.7491 98.25 13.3025 98.403 13.8912C98.4383 14.1267 98.4501 14.2444 98.4383 14.2444C98.7327 14.892 98.8975 15.2805 98.9328 15.41C98.9682 15.5278 98.9623 15.6279 98.9152 15.7103V15.6926C98.8799 15.7986 98.768 15.8928 98.5796 15.9752C98.403 16.0694 98.2441 16.1283 98.1028 16.1518C97.6554 16.2931 97.3905 16.1224 97.308 15.6396C97.2609 15.6043 97.1903 15.5337 97.0961 15.4277C97.0137 15.31 96.9666 15.2158 96.9548 15.1451C96.9431 15.0627 96.9018 14.9862 96.8312 14.9155C96.8077 14.8567 96.7547 14.7801 96.6723 14.6859C96.5898 14.5918 96.5427 14.4976 96.531 14.4034L96.478 13.9265L96.4427 13.9089C96.2543 14.2974 96.1306 14.5682 96.0718 14.7213C95.9305 15.1216 95.6832 15.5808 95.33 16.0988C94.9297 16.5462 94.4411 16.6757 93.8642 16.4874C93.6522 16.4756 93.4815 16.4108 93.352 16.2931C93.2343 16.1754 93.1518 16.1106 93.1048 16.0988C93.0341 16.0753 92.934 15.987 92.8045 15.8339C92.5926 15.5513 92.4631 15.1334 92.416 14.58V14.1208C92.4513 14.0619 92.4513 13.7794 92.416 13.2731V13.1671C92.3453 12.8139 92.31 12.602 92.31 12.5313C92.31 12.4607 92.3218 12.3665 92.3453 12.2487C92.3689 12.131 92.3748 12.0604 92.363 12.0368C92.3512 12.0015 92.3453 11.9485 92.3453 11.8779V11.613L92.4336 10.6593C92.5631 10.2472 92.7044 9.8763 92.8575 9.54663C92.9046 9.34647 92.9929 9.18752 93.1224 9.06978C93.4168 8.75189 93.5757 8.56939 93.5993 8.52229C93.6817 8.34569 93.9878 8.2044 94.5176 8.09843L94.8179 8.11609C94.9356 8.11609 95.0416 8.13375 95.1358 8.16908C95.2299 8.19262 95.2947 8.2044 95.33 8.2044C95.4949 8.28682 95.6303 8.32802 95.7362 8.32802C95.8422 8.32802 96.0188 8.41044 96.266 8.57528C96.3367 8.58705 96.5133 8.68713 96.7959 8.87551C97.102 9.07567 97.2786 9.18752 97.3257 9.21107L97.7849 9.37002C97.9144 9.47598 97.9792 9.53485 97.9792 9.54663C97.9792 9.5584 97.9497 9.88218 97.8909 10.518Z" fill="black"/>
    <path d="M105.948 11.5246L105.877 11.8779L105.842 12.3017C105.842 12.3959 105.824 12.5137 105.789 12.6549C105.789 13.1377 105.754 13.5027 105.683 13.7499C105.683 14.056 105.636 14.421 105.542 14.8449C105.507 15.1981 105.495 15.4454 105.507 15.5867C105.448 15.7044 105.418 15.8104 105.418 15.9046C105.418 15.9516 105.401 16.0753 105.365 16.2754C105.33 16.4756 105.277 16.611 105.206 16.6816C105.206 16.8111 105.183 16.923 105.136 17.0172C105.065 17.1467 105.012 17.2762 104.977 17.4057C104.953 17.547 104.93 17.6294 104.906 17.653C104.894 17.6883 104.888 17.7118 104.888 17.7236L104.588 18.2711C104.588 18.2829 104.529 18.3594 104.412 18.5007C104.388 18.5831 104.312 18.7067 104.182 18.8716C104.182 18.9187 103.982 19.0659 103.582 19.3131C103.452 19.4191 103.293 19.4956 103.105 19.5427L102.946 19.6133C102.769 19.7193 102.551 19.7782 102.292 19.7899C101.774 19.8606 101.392 19.8547 101.144 19.7723L100.685 19.6133V19.631C100.497 19.5486 100.332 19.4367 100.191 19.2954C99.9316 19.1659 99.7609 19.0305 99.6785 18.8892C99.5961 18.7597 99.5195 18.536 99.4489 18.2181C99.4253 18.1004 99.4548 17.9473 99.5372 17.7589C99.6314 17.5823 99.755 17.4999 99.9081 17.5117C99.9434 17.5117 100.091 17.5823 100.35 17.7236C100.373 17.7589 100.497 17.8708 100.72 18.0592C100.979 18.3653 101.25 18.5184 101.533 18.5184C101.639 18.5184 101.715 18.5066 101.762 18.483C101.81 18.4713 101.945 18.4477 102.169 18.4124C102.133 18.3771 102.145 18.3359 102.204 18.2888C102.275 18.2535 102.328 18.2299 102.363 18.2181C102.445 18.1946 102.516 18.1416 102.575 18.0592L102.804 17.8826C102.828 17.8472 102.91 17.7648 103.052 17.6353L103.228 17.3881C103.228 17.3056 103.293 17.1702 103.423 16.9819C103.411 16.9465 103.44 16.87 103.511 16.7523C103.511 16.7052 103.523 16.6345 103.546 16.5403L103.705 15.8339L103.687 15.7279C103.746 15.5867 103.776 15.4336 103.776 15.2688L103.899 14.7743L103.829 14.7566L103.493 15.3041C103.493 15.3159 103.476 15.3453 103.44 15.3924C103.405 15.4277 103.358 15.4866 103.299 15.569L102.963 16.0282L102.787 16.1341C102.481 16.3932 102.139 16.4874 101.762 16.4167C101.598 16.3225 101.445 16.2637 101.303 16.2401C101.174 16.2283 101.044 16.1577 100.915 16.0282C100.762 15.9693 100.614 15.8692 100.473 15.7279C100.426 15.6338 100.403 15.5631 100.403 15.516C100.403 15.4571 100.373 15.3629 100.314 15.2334C100.197 14.6212 100.138 14.0914 100.138 13.644C100.126 13.6086 100.126 13.4968 100.138 13.3084C100.161 13.1082 100.173 12.9787 100.173 12.9199C100.173 12.8492 100.185 12.7609 100.208 12.6549L100.279 12.1075C100.35 12.0133 100.403 11.8367 100.438 11.5776C100.497 11.2833 100.626 10.9124 100.826 10.465L100.915 10.2354L101.074 9.97049C101.074 9.85275 101.121 9.6938 101.215 9.49364C101.309 9.29349 101.368 9.17575 101.392 9.14043C101.415 9.1051 101.456 9.05801 101.515 8.99914C101.574 8.94027 101.633 8.87551 101.692 8.80487C101.845 8.66358 102.045 8.61649 102.292 8.66358C102.54 8.71068 102.722 8.78132 102.84 8.87551C102.969 8.95793 103.005 9.13454 102.946 9.40534C102.828 9.95871 102.769 10.2413 102.769 10.2531L102.645 10.5886C102.645 10.7417 102.622 10.8653 102.575 10.9595C102.575 11.0066 102.528 11.2892 102.434 11.8072C102.351 11.9603 102.31 12.0721 102.31 12.1428C102.31 12.237 102.281 12.3724 102.222 12.549C102.163 12.7138 102.122 12.8433 102.098 12.9375C102.063 13.1612 102.039 13.3555 102.027 13.5203C102.016 13.6852 101.968 13.8441 101.886 13.9972C101.91 13.9972 101.91 14.0678 101.886 14.2091V14.3857C101.874 14.527 101.974 14.6094 102.186 14.633C102.398 14.6565 102.604 14.4976 102.804 14.1561C103.087 13.5674 103.246 13.2378 103.281 13.1671L103.423 12.9022L103.476 12.7432C103.558 12.6844 103.629 12.6137 103.687 12.5313L103.793 12.2664C103.793 12.2311 104.029 11.507 104.5 10.0941L104.606 9.63493C104.606 9.36413 104.659 9.15809 104.765 9.0168C104.883 8.87551 104.994 8.79898 105.1 8.78721C105.277 8.78721 105.554 8.86963 105.93 9.03446C106.072 9.03446 106.16 9.19341 106.195 9.5113C106.195 9.72324 106.148 10.0176 106.054 10.3943C106.019 10.6181 106.001 10.8123 106.001 10.9772C105.966 11.1184 105.948 11.3009 105.948 11.5246Z" fill="black"/>
    <path d="M110.893 10.6769L110.805 10.518C110.664 10.518 110.399 10.8064 110.01 11.3834C109.551 12.0074 109.227 12.6255 109.039 13.2378C108.91 13.6027 108.833 13.903 108.809 14.1385C108.809 14.4799 108.88 14.7036 109.021 14.8096C109.08 14.8096 109.145 14.7684 109.216 14.6859C109.298 14.6035 109.345 14.5447 109.357 14.5093C109.439 14.4622 109.545 14.3268 109.675 14.1031C109.828 13.8794 109.91 13.7617 109.922 13.7499L110.081 13.4144L110.381 12.9022C110.358 12.9022 110.393 12.7668 110.487 12.496C110.629 12.2487 110.705 12.0604 110.717 11.9308L110.893 10.6769ZM107.167 14.9509C107.132 14.4446 107.138 14.056 107.185 13.7852C107.455 12.7962 107.667 12.0427 107.82 11.5246C107.82 11.5129 107.862 11.3657 107.944 11.0831C108.074 10.671 108.191 10.4002 108.297 10.2707C108.297 10.2354 108.344 10.1412 108.439 9.98815C108.439 9.88218 108.568 9.69969 108.827 9.44066L109.021 9.22873C109.233 9.04035 109.534 8.94616 109.922 8.94616C110.063 8.92261 110.228 8.9285 110.417 8.96382C110.758 9.11688 111.147 9.34647 111.582 9.65259L111.759 9.75856C111.853 9.7821 111.941 9.81154 112.024 9.84686C112.071 9.84686 112.171 9.87041 112.324 9.91751L112.554 10.0941C112.66 10.1648 112.724 10.2648 112.748 10.3943C112.677 10.465 112.642 10.6946 112.642 11.0831C112.595 11.5894 112.63 12.184 112.748 12.8669C112.795 13.5027 112.907 14.1738 113.083 14.8802C113.083 14.9391 113.125 15.098 113.207 15.3571C113.301 15.6161 113.342 15.7809 113.331 15.8516C113.331 16.1459 113.054 16.2931 112.501 16.2931C111.959 16.2578 111.582 16.0223 111.37 15.5867C111.358 15.5396 111.317 15.4454 111.247 15.3041C111.105 15.1628 111.029 15.0451 111.017 14.9509L110.982 14.7036C110.935 14.6683 110.905 14.6212 110.893 14.5623C110.752 14.7625 110.576 14.9685 110.364 15.1805L109.993 15.7633L109.851 15.9046C109.84 15.9516 109.716 16.0046 109.481 16.0635C109.245 16.1341 109.074 16.1459 108.968 16.0988C108.91 16.0988 108.827 16.087 108.721 16.0635L107.944 15.7456C107.767 15.6985 107.638 15.6161 107.556 15.4983C107.402 15.4042 107.326 15.3512 107.326 15.3394C107.208 15.1392 107.155 15.0097 107.167 14.9509Z" fill="black"/>
    </svg>
    