<svg width="24" height="24" viewBox="0 0 24 24" fill="none" xmlns="http://www.w3.org/2000/svg">
    <rect width="24" height="24" rx="4" fill="black"/>
    <path d="M4.04466 13.1449C4.45742 15.9545 6.15972 17.6667 10.0125 17.6667C12.5778 17.6667 13.6897 14.5364 12.7151 13.1449C11.8743 11.9444 8.17508 13.9093 7.52631 12.6051C7.01767 11.5826 7.33753 10.5904 8.12698 9.7647C9.16321 8.68086 11.2749 9.04274 11.9949 9.53043C12.715 10.0181 13.5344 17.6667 15.5506 17.6667C17.5669 17.6667 20 12.5339 20 9.53042C20 7.65381 18.6128 6.12841 17.6422 8.10382C17.0594 9.29004 16.3071 15.776 15.5506 15.776C14.7942 15.776 15.5407 11.5515 14.0295 9.53042C13.3753 8.65551 12.9727 8.10414 11.9949 7.5986C11.135 7.15398 9.57535 7.0282 9.57535 7.0282C6.19682 6.64216 3.6265 10.2985 4.04466 13.1449Z" fill="white"/>
    </svg>
    