<svg width="24" height="24" viewBox="0 0 24 24" fill="none" xmlns="http://www.w3.org/2000/svg">
    <path fill-rule="evenodd" clip-rule="evenodd"
        d="M12 24C18.6274 24 24 18.6274 24 12C24 5.37258 18.6274 0 12 0C5.37258 0 0 5.37258 0 12C0 18.6274 5.37258 24 12 24ZM10.0125 17.6667C6.15972 17.6667 4.45743 15.9545 4.04466 13.1449C3.6265 10.2985 6.19682 6.64216 9.57535 7.0282C9.57535 7.0282 11.135 7.15398 11.9949 7.5986C12.9573 8.09618 13.3625 8.63815 13.9988 9.48932L14.0295 9.53042C14.8977 10.6916 15.0207 12.5802 15.1116 13.977C15.179 15.0113 15.2288 15.776 15.5506 15.776C16.0006 15.776 16.4491 13.4812 16.8613 11.3719C17.1421 9.93515 17.4061 8.58446 17.6422 8.10382C18.6128 6.12841 20 7.65381 20 9.53042C20 12.5339 17.5669 17.6667 15.5506 17.6667C14.2452 17.6667 13.4415 14.4604 12.8416 12.0673C12.515 10.7643 12.2488 9.70235 11.9949 9.53043C11.2749 9.04274 9.16321 8.68086 8.12698 9.7647C7.33753 10.5904 7.01767 11.5826 7.52631 12.6051C7.855 13.2659 8.9667 13.0875 10.093 12.9068C11.1897 12.7308 12.3003 12.5526 12.7151 13.1449C13.6897 14.5364 12.5778 17.6667 10.0125 17.6667Z"
        fill="#6B7280" />
</svg>
    