<svg width="512" height="512" viewBox="0 0 512 512" fill="none" xmlns="http://www.w3.org/2000/svg">
    <path
        d="M512 256C512 397.385 397.385 512 256 512C114.615 512 0 397.385 0 256C0 114.615 114.615 0 256 0C397.385 0 512 114.615 512 256Z"
        fill="url(#paint0_linear_62_346)" />
    <path
        d="M65.0719 275.478C74.9782 342.908 115.833 384 208.301 384C269.867 384 296.552 308.873 273.164 275.478C252.984 246.665 164.202 293.824 148.631 262.523C136.424 237.982 144.101 214.17 163.047 194.353C187.917 168.341 238.598 177.026 255.879 188.73C273.159 200.435 292.825 384 341.215 384C389.605 384 448 260.814 448 188.73C448 143.691 414.708 107.082 391.413 154.492C377.425 182.961 359.371 338.624 341.215 338.624C323.06 338.624 340.976 237.236 304.708 188.73C289.007 167.732 279.345 154.499 255.879 142.366C235.24 131.696 197.808 128.677 197.808 128.677C116.724 119.412 55.0359 207.165 65.0719 275.478Z"
        fill="url(#paint1_linear_62_346)" />
    <defs>
        <linearGradient id="paint0_linear_62_346" x1="0" y1="0" x2="512" y2="512"
            gradientUnits="userSpaceOnUse">
            <stop stop-color="#4B5563" />
            <stop offset="1" stop-color="#374151" />
        </linearGradient>
        <linearGradient id="paint1_linear_62_346" x1="0" y1="0" x2="512" y2="512"
            gradientUnits="userSpaceOnUse">
            <stop stop-color="#9CA3AF" />
            <stop offset="1" stop-color="#6B7280" />
        </linearGradient>
    </defs>
</svg>
    