<svg width="90" height="24" viewBox="0 0 90 24" fill="none" xmlns="http://www.w3.org/2000/svg">
    <path d="M6.93348 11.0831C6.95702 11.0596 7.09242 11.036 7.33968 11.0125C7.5987 10.9772 7.89894 10.8712 8.24038 10.6946C8.25216 10.6946 8.24627 10.5533 8.22272 10.2707C8.1874 9.77622 8.15796 9.423 8.13442 9.21107C8.11087 8.92849 8.08732 8.72834 8.06377 8.6106C8.06377 8.38689 7.97547 7.92182 7.79886 7.21539L7.02178 9.84686C6.85694 10.5768 6.79219 11.0243 6.82751 11.1891L6.93348 11.0831ZM4.54925 11.5953L4.65522 10.8182C4.65522 10.6652 4.67877 10.5121 4.72586 10.359C4.72586 10.1589 4.82594 9.85864 5.0261 9.45832C5.0261 9.43477 5.07908 9.28171 5.18505 8.99914C5.18505 8.97559 5.2969 8.62826 5.5206 7.95715L5.73253 7.44498C5.73253 7.39788 5.76197 7.30958 5.82084 7.18007C5.87971 7.03878 5.92092 6.90338 5.94446 6.77387C5.97979 6.63258 6.021 6.49718 6.06809 6.36766C6.23293 6.04977 6.3801 5.77897 6.50961 5.55526C6.75687 5.08431 7.21605 4.87237 7.88716 4.91947L8.45231 4.97245C8.80553 5.06664 9.07633 5.16672 9.26471 5.27269C9.53551 5.37865 9.71801 5.49639 9.8122 5.62591C9.90639 5.74365 9.9476 5.9438 9.93583 6.22638C9.9476 6.36766 9.98292 6.97991 10.0418 8.06311C10.1007 9.14631 10.1301 9.6938 10.1301 9.70557L10.2184 10.465C10.2184 10.5356 10.3479 11.3834 10.6069 13.0082L10.9955 14.2444C11.231 14.9038 11.3546 15.2511 11.3664 15.2864C11.3899 15.31 11.4429 15.4336 11.5253 15.6573C11.6548 16.0458 11.543 16.3049 11.1898 16.4344C10.8719 16.4815 10.6364 16.452 10.4833 16.3461C10.4244 16.3461 10.289 16.2931 10.0771 16.1871C10.0536 16.1283 9.98292 16.0694 9.86518 16.0105C9.75922 15.9634 9.68858 15.9222 9.65325 15.8869C9.52374 15.8516 9.406 15.6691 9.30004 15.3394C9.26471 15.3159 9.19996 15.2217 9.10577 15.0568C9.02335 14.892 8.9998 14.7566 9.03512 14.6506C8.9527 14.5447 8.9115 14.3268 8.9115 13.9972C8.80553 13.8206 8.75255 13.5439 8.75255 13.1671C8.75255 12.7903 8.69368 12.496 8.57594 12.2841C7.97547 12.5549 7.33379 12.702 6.6509 12.7256C6.52139 12.7256 6.45663 12.7491 6.45663 12.7962C6.45663 12.9022 6.42131 13.0906 6.35067 13.3614L6.05043 15.3041C6.16817 16.1754 6.0622 16.6345 5.73253 16.6816C5.63834 16.6816 5.47939 16.7052 5.25569 16.7523C5.04376 16.7994 4.86715 16.7582 4.72586 16.6286C4.45506 16.4756 4.26079 16.3166 4.14305 16.1518C4.03709 15.9987 3.98999 15.8221 4.00177 15.622C4.01354 15.4571 4.04297 15.1039 4.09007 14.5623C4.11362 14.5388 4.11951 14.4093 4.10773 14.1738C4.10773 13.9265 4.12539 13.7381 4.16071 13.6086L4.44329 12.5137C4.47861 12.4901 4.52571 12.3135 4.58458 11.9838C4.5728 11.9603 4.56691 11.9014 4.56691 11.8072L4.54925 11.5953Z" fill="black"/>
    <path d="M12.7403 10.6416C12.7403 10.5356 12.7285 10.412 12.705 10.2707V10.1471C12.7168 10.0647 12.7109 9.97638 12.6873 9.88218C12.6873 9.76444 12.6991 9.65848 12.7227 9.56429C12.7227 9.32881 12.7521 9.17575 12.811 9.1051C12.811 9.04623 12.8934 8.91083 13.0582 8.6989C13.1053 8.65181 13.1936 8.57528 13.3231 8.46931C13.5115 8.41044 13.641 8.37512 13.7117 8.36335C13.7588 8.31625 13.9177 8.33391 14.1885 8.41633C14.3063 8.4281 14.4888 8.46931 14.736 8.53995C14.8184 8.5635 14.9244 8.65769 15.0539 8.82253C15.0304 8.86963 14.9891 9.04623 14.9303 9.35236C14.8832 9.6467 14.8655 9.88807 14.8773 10.0765C14.9479 10.0176 15.0716 9.89396 15.2482 9.70557C15.4248 9.51719 15.519 9.41711 15.5307 9.40534C15.8369 9.26405 16.1371 9.16397 16.4315 9.1051C16.8553 9.06978 17.132 9.09922 17.2615 9.19341C17.3675 9.22873 17.4499 9.28171 17.5088 9.35236C17.6147 9.44655 17.703 9.61138 17.7737 9.84686C17.8443 10.0706 17.8384 10.2119 17.756 10.2707C17.6854 10.3296 17.4499 10.3767 17.0496 10.412C17.026 10.412 16.9436 10.4591 16.8023 10.5533L15.884 11.2774C15.6956 11.3716 15.5661 11.454 15.4954 11.5246L15.1599 12.1428C15.1481 12.1663 15.1363 12.3194 15.1245 12.602C15.1128 12.8845 15.1128 13.0906 15.1245 13.2201C15.1363 13.3378 15.1363 13.7323 15.1245 14.4034V15.1628C15.1245 15.5749 15.1187 15.8104 15.1069 15.8692C15.0951 15.9399 15.048 16.0576 14.9656 16.2224C14.9303 16.2813 14.8184 16.3108 14.63 16.3108C14.1709 16.6522 13.8765 16.6345 13.747 16.2578L13.5174 16.1165C13.4232 16.0694 13.3643 16.0105 13.3408 15.9399C13.2466 15.8104 13.1995 15.7338 13.1995 15.7103L13.1289 15.463L13.0229 15.2511C12.9876 15.2393 12.9581 15.0156 12.9346 14.58C12.911 14.1326 12.8993 13.8618 12.8993 13.7676C12.8993 13.6616 12.8875 13.5498 12.864 13.432C12.9464 13.3496 12.9817 13.2083 12.9699 13.0082C12.9699 12.808 12.9581 12.6549 12.9346 12.549C12.911 12.4312 12.911 12.3606 12.9346 12.337C12.9581 12.3017 12.9523 12.1369 12.9169 11.8425C12.8816 11.7954 12.8757 11.7071 12.8993 11.5776L12.7403 10.6416Z" fill="black"/>
    <path d="M21.8329 5.23737C21.8094 5.53171 21.7976 5.74953 21.7976 5.89082C21.7976 6.02033 21.7917 6.13807 21.7799 6.24404V6.70322L21.7623 6.82685V7.19773C21.7623 7.30369 21.7564 7.40966 21.7446 7.51562L22.3628 7.392C22.4098 7.392 22.5806 7.36256 22.8749 7.30369C23.1693 7.24482 23.4342 7.22127 23.6697 7.23305C23.9169 7.23305 24.0817 7.28014 24.1642 7.37434C24.2584 7.46853 24.3055 7.60393 24.3055 7.78054C24.329 7.92182 24.2878 8.05722 24.1818 8.18674L24.1112 8.2927C24.017 8.44576 23.8816 8.54584 23.705 8.59294L23.0869 8.68124L22.2921 8.87551L21.8153 9.05212C21.827 9.34647 21.8447 9.67025 21.8682 10.0235C21.9036 10.3767 21.9212 10.6239 21.9212 10.7652L21.9742 11.4187C22.1273 12.4548 22.3274 13.5144 22.5747 14.5976C22.6453 14.7036 22.7219 14.945 22.8043 15.3217L22.9456 15.6926C22.9927 16.0929 22.7454 16.2931 22.2038 16.2931C22.1096 16.2931 21.8741 16.2695 21.4974 16.2224C21.3914 16.2107 21.2383 16.1047 21.0382 15.9046C21.0382 15.881 20.9734 15.8045 20.8439 15.675L20.5084 14.8626C20.4848 14.8272 20.4554 14.7154 20.4201 14.527C20.2905 14.3975 20.1846 14.1031 20.1022 13.644C20.1022 13.6204 20.0904 13.5615 20.0668 13.4673V13.2201C19.9844 13.1377 19.9255 12.9081 19.8902 12.5313C19.8549 12.1546 19.8137 11.8013 19.7666 11.4717C19.7666 11.0125 19.7313 10.571 19.6606 10.1471L19.6253 9.75856V9.59961C19.6371 9.48187 19.6371 9.423 19.6253 9.423H19.4134C19.2368 9.44655 19.0896 9.44655 18.9719 9.423C18.4538 9.423 18.0947 9.27583 17.8945 8.98148C17.7533 8.66358 17.7474 8.45754 17.8769 8.36335C18.0064 8.26915 18.3243 8.17496 18.8306 8.08077C19.0543 8.08077 19.3427 8.00424 19.696 7.85118C19.696 7.55683 19.7136 7.392 19.7489 7.35667C19.7843 7.08587 19.8196 6.91515 19.8549 6.84451C19.902 6.76209 19.9314 6.67967 19.9432 6.59726C19.955 6.31468 20.0551 5.89671 20.2434 5.34333C20.3141 5.07253 20.3788 4.89004 20.4377 4.79584C20.5908 4.57214 20.9087 4.5015 21.3914 4.58391C21.5916 4.61923 21.7387 4.69577 21.8329 4.81351C21.8682 4.80173 21.8682 4.94302 21.8329 5.23737Z" fill="black"/>
    <path d="M30.682 12.5137C30.6114 12.6785 30.576 12.8021 30.576 12.8845C30.576 12.967 30.5525 13.0906 30.5054 13.2554C30.4465 13.3732 30.4583 13.5615 30.5407 13.8206C30.5407 14.0325 30.5643 14.2621 30.6114 14.5093C30.6585 14.7801 30.7291 14.9803 30.8233 15.1098L31.0529 15.1275C31.0293 15.1039 31.0588 15.0745 31.1412 15.0392C31.2707 14.9921 31.3472 14.9509 31.3708 14.9155C31.4061 14.8684 31.4944 14.786 31.6357 14.6683C31.7888 14.5505 31.9006 14.4269 31.9713 14.2974C32.0301 14.1443 32.1361 13.9736 32.2891 13.7852C32.5128 13.3378 32.7189 12.6196 32.9073 11.6306C33.0015 11.3716 33.0486 11.1773 33.0486 11.0478C33.0603 10.9065 33.0309 10.7535 32.9603 10.5886L32.6777 10.3767C32.454 10.3767 32.2597 10.4591 32.0949 10.6239L31.7593 10.8889C31.6534 10.9595 31.5827 11.0301 31.5474 11.1008C31.3826 11.2068 31.2059 11.4363 31.0176 11.7896C31.0176 11.8013 30.994 11.8367 30.9469 11.8955C30.9116 11.9544 30.8704 12.0662 30.8233 12.2311C30.7409 12.337 30.6938 12.4312 30.682 12.5137ZM29.2868 9.38768C29.2868 9.12865 29.3103 8.90495 29.3574 8.71656C29.4045 8.52818 29.4281 8.28093 29.4281 7.97481C29.4281 7.66868 29.4457 7.28603 29.4811 6.82685V6.54427C29.4693 6.50895 29.4811 6.40299 29.5164 6.22638C29.4811 5.87316 29.4869 5.62002 29.534 5.46696V5.29035C29.5105 5.07842 29.534 4.91947 29.6047 4.81351C29.7342 4.66044 29.9226 4.53093 30.1698 4.42497C30.4289 4.319 30.6349 4.26013 30.788 4.24836H30.8763C30.9234 4.2719 30.9646 4.28956 30.9999 4.30134C31.047 4.30134 31.1471 4.33666 31.3001 4.4073C31.4414 4.5015 31.5003 4.64867 31.4767 4.84883C31.4885 4.91947 31.4944 4.996 31.4944 5.07842C31.4944 5.16084 31.4238 5.75542 31.2825 6.86217C31.1412 7.95715 31.0529 8.6989 31.0176 9.08744L30.9999 9.8292C31.047 9.8292 31.0882 9.79977 31.1235 9.7409C31.1353 9.6938 31.1883 9.64671 31.2825 9.59961C31.306 9.55251 31.3472 9.51719 31.4061 9.49364C31.4767 9.45832 31.5474 9.41123 31.618 9.35236C31.9477 9.04623 32.4069 8.89317 32.9956 8.89317C33.184 8.89317 33.3429 8.93438 33.4724 9.0168L33.7373 9.15809L34.3201 9.37002C34.5085 9.48776 34.6145 9.58195 34.638 9.65259L34.8147 10.3414C34.8382 10.4709 34.85 10.7181 34.85 11.0831C34.85 11.4363 34.8147 11.7071 34.744 11.8955C34.744 12.0133 34.7087 12.1781 34.638 12.39C34.638 12.5078 34.5968 12.7668 34.5144 13.1671C34.432 13.5674 34.3084 13.9383 34.1435 14.2797C34.0847 14.3386 34.0258 14.4505 33.9669 14.6153C33.9198 14.7684 33.7785 14.9626 33.5431 15.1981C33.4371 15.1981 33.337 15.2923 33.2428 15.4807C33.1251 15.5984 32.9014 15.7338 32.5717 15.8869C32.1243 16.0753 31.8476 16.1695 31.7417 16.1695C31.6357 16.1695 31.5297 16.1754 31.4238 16.1871C31.3296 16.2107 31.2001 16.2224 31.0352 16.2224C30.8822 16.2224 30.7468 16.2401 30.629 16.2754C30.5113 16.3225 30.317 16.2931 30.0462 16.1871C30.0109 16.1518 29.8402 16.0812 29.534 15.9752C29.2397 15.8692 29.0807 15.7103 29.0572 15.4983C28.963 15.3924 28.91 15.257 28.8983 15.0921C28.8865 14.9155 28.8688 14.7801 28.8453 14.6859C28.8335 14.5918 28.8276 14.4151 28.8276 14.1561C28.8158 13.9677 28.8453 13.4673 28.9159 12.6549C28.9512 12.1722 29.016 11.56 29.1102 10.8182C29.1455 10.6416 29.2044 10.1648 29.2868 9.38768Z" fill="black"/>
    <path d="M38.4473 10.2884C38.4473 10.4768 38.4355 10.6416 38.412 10.7829C38.4002 10.9242 38.3943 11.0125 38.3943 11.0478C38.3943 11.4128 38.3766 11.6836 38.3413 11.8602C38.3178 12.025 38.306 12.1604 38.306 12.2664V13.0611C38.306 13.744 38.3295 14.1561 38.3766 14.2974C38.4237 14.4269 38.5061 14.5152 38.6239 14.5623C38.7534 14.5976 38.8535 14.5918 38.9241 14.5447C38.9948 14.4858 39.0595 14.4034 39.1184 14.2974C39.189 14.1797 39.242 14.0502 39.2773 13.9089C39.3244 13.7558 39.3892 13.5969 39.4716 13.432C39.554 13.2554 39.6011 13.1318 39.6129 13.0611C39.6364 12.9787 39.6894 12.8786 39.7718 12.7609C39.9367 12.1251 40.0309 11.3892 40.0544 10.5533V9.98815C40.078 9.51719 40.1663 9.12277 40.3193 8.80487C40.4018 8.61649 40.6431 8.46342 41.0434 8.34569L41.3083 8.32802C41.5438 8.32802 41.6969 8.36335 41.7675 8.43399C41.8382 8.77543 41.8441 9.25816 41.7852 9.88218V11.1008C41.8087 11.6895 41.8205 12.0957 41.8205 12.3194C41.8087 12.4018 41.8146 13.0965 41.8382 14.4034C41.8264 14.4151 41.8264 14.5682 41.8382 14.8626C41.8499 15.0509 41.8323 15.463 41.7852 16.0988C41.7499 16.7346 41.7322 17.1173 41.7322 17.2468C41.6027 17.965 41.4555 18.4595 41.2907 18.7303C41.1376 19.0011 40.9257 19.2366 40.6549 19.4367C40.4665 19.6251 40.131 19.7546 39.6482 19.8253C39.6129 19.8135 39.5187 19.8076 39.3656 19.8076C38.6592 19.737 38.2 19.5957 37.9881 19.3837C37.3641 19.0659 36.9991 18.8304 36.8931 18.6773C36.7989 18.536 36.7401 18.4006 36.7165 18.2711C36.693 18.1416 36.7283 17.9238 36.8225 17.6177C36.9991 17.394 37.2287 17.3527 37.5113 17.494C37.629 17.5529 37.8409 17.6706 38.147 17.8472L38.7299 18.1298C38.8123 18.2005 38.8947 18.2064 38.9771 18.1475C39.0948 18.0768 39.1655 18.0415 39.189 18.0415C39.3892 17.8767 39.5835 17.6177 39.7718 17.2644C39.7718 17.1467 39.8307 16.9701 39.9485 16.7346C39.9485 16.4991 40.0191 16.1518 40.1604 15.6926V15.4983C40.1604 15.3217 40.1722 15.1746 40.1957 15.0568C40.2193 14.9273 40.231 14.8272 40.231 14.7566C40.1368 14.9332 40.0603 15.098 40.0014 15.2511C39.9426 15.4042 39.8719 15.5337 39.7895 15.6396C39.7777 15.7103 39.6541 15.7809 39.4186 15.8516L38.7652 15.8692C38.7652 15.8575 38.7299 15.8516 38.6592 15.8516L38.3943 15.8339C37.7703 15.8339 37.3759 15.7515 37.211 15.5867C37.1286 15.4807 37.0285 15.3806 36.9108 15.2864C36.8048 15.1569 36.7401 14.9921 36.7165 14.7919C36.6812 14.7566 36.6576 14.6565 36.6459 14.4917V14.2974L36.6105 14.0855C36.6223 14.0619 36.6105 13.9795 36.5752 13.8382C36.5517 13.6969 36.5399 13.4673 36.5399 13.1495V12.9375C36.5399 11.8896 36.5517 11.3422 36.5752 11.2951C36.6105 11.2244 36.6282 11.1597 36.6282 11.1008C36.6047 11.0419 36.6105 10.9772 36.6459 10.9065L36.6812 10.6593L36.8578 10.1118C36.8578 10.0647 36.8931 9.91751 36.9638 9.67025C37.0344 9.59961 37.0756 9.51719 37.0874 9.423C37.1345 9.1993 37.158 9.04623 37.158 8.96382C37.1698 8.8814 37.2228 8.76955 37.317 8.62826C37.4583 8.52229 37.6643 8.48697 37.9351 8.52229C38.2177 8.54584 38.4591 8.66358 38.6592 8.87551L38.4649 9.65259C38.4767 9.73501 38.4826 9.80565 38.4826 9.86452L38.4473 10.2884Z" fill="black"/>
    <path d="M49.7334 7.76288L49.8924 8.6106V9.0168C49.9983 9.3347 50.0749 9.65848 50.122 9.98815C50.3103 11.0714 50.4163 11.6954 50.4399 11.8602C50.4634 12.025 50.487 12.1781 50.5105 12.3194C50.5458 12.4607 50.5517 12.5431 50.5282 12.5666C50.5399 12.6608 50.5458 12.7432 50.5458 12.8139C50.5576 12.8728 50.5694 12.9257 50.5811 12.9728C50.6047 13.0082 50.6224 13.0317 50.6341 13.0435C50.6577 13.0553 50.6812 13.0494 50.7048 13.0258C50.7754 12.9787 50.8755 12.7374 51.005 12.3017C51.1463 12.0074 51.2405 11.7366 51.2876 11.4893C51.3111 11.348 51.3641 11.1243 51.4465 10.8182C51.5289 10.571 51.6055 10.3355 51.6761 10.1118C51.7585 9.91162 51.8174 9.69969 51.8527 9.47598C51.8881 9.2405 51.9057 9.11099 51.9057 9.08744C51.9175 9.05212 51.941 8.99325 51.9764 8.91083C52.0941 8.56939 52.153 8.31036 52.153 8.13375C52.153 7.94537 52.1765 7.74521 52.2236 7.53328C52.2236 7.23894 52.306 6.84451 52.4709 6.35C52.4709 6.32646 52.5062 6.18517 52.5768 5.92614C52.6475 5.65534 52.7358 5.40809 52.8417 5.18438C53.0301 4.68988 53.3716 4.35432 53.8661 4.17771C54.0662 4.11884 54.284 4.08941 54.5195 4.08941C54.7668 4.08941 54.9316 4.11884 55.014 4.17771C55.1082 4.23658 55.1612 4.3661 55.173 4.56625C55.1494 4.6369 55.1318 4.74875 55.12 4.90181L54.5725 6.59726L54.3429 7.18007L54.131 7.60393C54.131 7.62748 54.1016 7.69812 54.0427 7.81586L53.8661 8.39867C53.8425 8.57528 53.8131 8.69302 53.7778 8.75189L53.4775 9.7409C53.4304 9.78799 53.3892 9.92928 53.3539 10.1648C53.2597 10.4827 53.1773 10.7064 53.1067 10.8359C53.0242 11.0714 52.983 11.2362 52.983 11.3304C52.983 11.4246 52.9536 11.56 52.8947 11.7366C52.8358 11.9014 52.7946 11.9956 52.7711 12.0192C52.7593 12.0309 52.7358 12.1075 52.7005 12.2487C52.6651 12.39 52.6475 12.5313 52.6475 12.6726C52.6004 12.6962 52.5768 12.8021 52.5768 12.9905C52.5062 13.1436 52.4591 13.3614 52.4355 13.644C52.3767 13.7499 52.3413 13.903 52.3296 14.1031C52.2118 14.5505 52.0588 14.9038 51.8704 15.1628C51.682 15.41 51.4112 15.5631 51.058 15.622C50.7048 15.7044 50.4575 15.7044 50.3162 15.622C50.2691 15.6337 50.1926 15.622 50.0866 15.5867C50.0278 15.5867 49.9866 15.5749 49.963 15.5513C49.8806 15.5513 49.7511 15.4984 49.5745 15.3924C49.445 15.3453 49.3272 15.2688 49.2213 15.1628C49.1271 15.0451 49.0211 14.9097 48.9034 14.7566C48.8798 14.6977 48.8092 14.58 48.6914 14.4034C48.6561 14.0973 48.609 13.9148 48.5501 13.8559C48.5266 13.797 48.5148 13.7558 48.5148 13.7323L48.4089 13.3084C48.4206 13.3202 48.4324 13.3437 48.4442 13.379C48.4206 13.0376 48.4147 12.755 48.4265 12.5313C48.3794 12.4136 48.3794 12.237 48.4265 12.0015C48.4265 11.8131 48.4089 11.6483 48.3735 11.507C48.244 11.1773 48.1734 10.9477 48.1616 10.8182C48.1616 10.6887 48.1439 10.4827 48.1086 10.2001C48.1086 9.89396 48.0968 9.62904 48.0733 9.40534L47.7731 7.70989C47.7024 7.33313 47.673 7.11531 47.6848 7.05644C47.6965 6.9858 47.6965 6.94459 47.6848 6.93281C47.6848 6.90927 47.6789 6.86806 47.6671 6.80919C47.6671 6.75032 47.6612 6.67379 47.6494 6.57959C47.567 6.39121 47.5199 6.23815 47.5081 6.12041C47.0843 5.08431 47.1667 4.50738 47.7554 4.38964C47.826 4.3661 47.9791 4.35432 48.2146 4.35432C48.4618 4.35432 48.6208 4.3661 48.6914 4.38964C48.7621 4.40142 48.8504 4.44263 48.9563 4.51327C49.2271 4.6781 49.4214 5.33745 49.5392 6.49129C49.6333 7.10354 49.6863 7.45087 49.6981 7.53328C49.7216 7.60393 49.7334 7.68046 49.7334 7.76288Z" fill="black"/>
    <path d="M56.809 4.77818C57.5978 4.77818 58.1512 4.93713 58.4691 5.25503C58.4691 5.45518 58.3337 5.86139 58.0629 6.47363C58.0158 6.67379 57.9393 6.83273 57.8333 6.95047L57.6037 7.18007C57.5448 7.21539 57.486 7.23305 57.4271 7.23305C57.0032 7.33901 56.6736 7.2566 56.4381 6.9858C56.391 6.91515 56.3321 6.86217 56.2615 6.82685C56.2026 6.79153 56.1555 6.68556 56.1202 6.50895C56.0142 6.35589 55.9612 6.23815 55.9612 6.15573C55.9377 5.42575 56.2026 4.96657 56.756 4.77818H56.809ZM56.6677 8.94616C56.7854 8.88729 57.0621 8.94616 57.4977 9.12277C57.5448 9.16986 57.6155 9.21696 57.7097 9.26405L57.9922 9.49364C58.0393 9.54074 58.0629 9.61727 58.0629 9.72324V11.2774C58.0629 11.5129 58.0511 11.7248 58.0276 11.9132V12.0192C57.9922 12.5019 58.0217 13.591 58.1159 15.2864C58.1512 15.6161 58.0747 15.8162 57.8863 15.8869C57.6861 15.8869 57.5566 15.8575 57.4977 15.7986C57.4506 15.775 57.4094 15.7633 57.3741 15.7633H57.2505L57.1445 15.7986C57.1092 15.7986 57.0444 15.775 56.9502 15.7279C56.8561 15.6691 56.7913 15.6102 56.756 15.5513C56.7324 15.4925 56.6853 15.4571 56.6147 15.4454C56.4852 15.3983 56.4145 15.31 56.4028 15.1805C56.2379 14.8626 56.1496 14.6742 56.1378 14.6153C56.1378 14.5564 56.1202 14.4917 56.0849 14.421L55.9966 12.8845C55.9966 12.7079 56.0083 12.5725 56.0319 12.4783V12.0545C56.0437 11.925 56.0554 11.6895 56.0672 11.348C56.079 10.9948 56.0966 10.7122 56.1202 10.5003C56.0966 10.1942 56.0849 9.98815 56.0849 9.88218C56.0849 9.77622 56.0907 9.69969 56.1025 9.65259C55.973 9.52308 55.9789 9.34647 56.1202 9.12277C56.2732 9.00503 56.4204 8.94616 56.5617 8.94616H56.6677Z" fill="black"/>
    <path d="M60.6866 6.87983C60.4982 6.87983 60.3628 6.86806 60.2804 6.84451C60.1745 6.85628 60.0862 6.82096 60.0155 6.73854C59.9331 6.64435 59.7918 6.5325 59.5917 6.40299L59.5387 6.2617C59.4562 6.12041 59.415 6.00856 59.415 5.92614C59.3915 5.77308 59.5446 5.41398 59.8742 4.84883C60.0155 4.41319 60.3157 4.13062 60.7749 4.0011H60.8103C60.9869 3.98933 61.2223 4.07175 61.5167 4.24836C61.658 4.28368 61.7757 4.4073 61.8699 4.61923L61.711 5.59058C61.5697 6.14396 61.3224 6.57371 60.9692 6.87983H60.6866ZM60.5277 8.41633C60.8103 8.34569 61.0987 8.34569 61.3931 8.41633C61.4873 8.41633 61.6285 8.46931 61.8169 8.57528C61.9111 8.85785 61.9523 9.02269 61.9406 9.06978C61.9877 9.25816 62.0289 9.62904 62.0642 10.1824C62.0995 10.724 62.1289 11.142 62.1525 11.4363C62.3055 13.3908 62.3821 14.5093 62.3821 14.7919L62.3291 15.4807C62.3291 16.2695 62.2702 16.7935 62.1525 17.0525C62.1643 17.0996 62.1466 17.2115 62.0995 17.3881C62.0524 17.5647 62.0171 17.6765 61.9935 17.7236C61.97 17.7825 61.9582 17.8178 61.9582 17.8296C61.9111 17.9473 61.8699 18.0474 61.8346 18.1298C61.811 18.224 61.7875 18.3064 61.7639 18.3771C61.7051 18.4948 61.6403 18.6126 61.5697 18.7303C61.5697 18.7656 61.4873 18.8775 61.3224 19.0659C61.2635 19.2425 61.0222 19.4485 60.5983 19.684C60.0096 20.0254 59.3267 20.0902 58.5497 19.8783C58.4908 19.89 58.4555 19.89 58.4437 19.8783C58.3966 19.8312 58.22 19.7664 57.9139 19.684C57.8668 19.578 57.7255 19.4662 57.49 19.3484L57.3134 19.2425C57.3134 19.1718 57.2722 19.0541 57.1898 18.8892C57.0838 18.5831 57.0308 18.4183 57.0308 18.3947L57.0838 18.1122C57.072 18.0297 57.125 17.9356 57.2428 17.8296C57.3487 17.7236 57.4723 17.6706 57.6136 17.6706C57.7431 17.6706 57.9198 17.7825 58.1435 18.0062C58.2612 18.2064 58.3789 18.3418 58.4967 18.4124C58.7557 18.4359 58.9146 18.4477 58.9735 18.4477L59.5033 18.5007C59.8683 18.277 60.0803 18.0533 60.1391 17.8296C60.1627 17.7472 60.1803 17.6883 60.1921 17.653C60.2157 17.5941 60.251 17.3881 60.2981 17.0348C60.2981 16.717 60.3452 16.3755 60.4394 16.0105C60.5336 15.6455 60.5689 15.3688 60.5453 15.1805L60.5807 15.0038C60.5807 14.8037 60.5865 14.633 60.5983 14.4917C60.6336 14.2562 60.5924 13.903 60.4747 13.432C60.4865 13.3849 60.4865 13.3025 60.4747 13.1848C60.4276 13.0317 60.3982 12.8963 60.3864 12.7786L60.3511 12.2664L60.1391 11.2244L60.0332 10.2177C60.0096 9.75856 60.0155 9.3759 60.0508 9.06978C60.0979 8.76366 60.2569 8.54584 60.5277 8.41633Z" fill="black"/>
    <path d="M67.8245 11.2421C67.8363 11.2068 67.8599 11.0007 67.8952 10.6239C67.8716 10.5886 67.8422 10.4591 67.8069 10.2354C67.7127 10.047 67.5891 9.90573 67.436 9.81154C67.2476 9.72912 67.1358 9.68791 67.1004 9.68791C66.9945 9.72324 66.9179 9.76444 66.8708 9.81154C66.8355 9.84686 66.7354 10.0117 66.5706 10.306C66.4175 10.6004 66.288 11.089 66.1821 11.7719C66.0879 12.4548 66.0408 12.9493 66.0408 13.2554C66.0408 13.5615 66.0526 13.9383 66.0761 14.3857C66.0996 14.8213 66.1938 15.0274 66.3587 15.0038C66.5117 14.9803 66.7237 14.5564 66.9945 13.7323C67.0062 13.6734 67.0475 13.5674 67.1181 13.4144L67.8245 11.2421ZM69.8909 10.518C69.8909 11.142 69.9556 11.713 70.0851 12.2311C70.144 12.7491 70.25 13.3025 70.403 13.8912C70.4383 14.1267 70.4501 14.2444 70.4383 14.2444C70.7327 14.892 70.8975 15.2805 70.9328 15.41C70.9682 15.5278 70.9623 15.6279 70.9152 15.7103V15.6926C70.8799 15.7986 70.768 15.8928 70.5796 15.9752C70.403 16.0694 70.2441 16.1283 70.1028 16.1518C69.6554 16.2931 69.3905 16.1224 69.308 15.6396C69.2609 15.6043 69.1903 15.5337 69.0961 15.4277C69.0137 15.31 68.9666 15.2158 68.9548 15.1451C68.9431 15.0627 68.9018 14.9862 68.8312 14.9155C68.8077 14.8567 68.7547 14.7801 68.6722 14.6859C68.5898 14.5918 68.5427 14.4976 68.531 14.4034L68.478 13.9265L68.4427 13.9089C68.2543 14.2974 68.1307 14.5682 68.0718 14.7213C67.9305 15.1216 67.6832 15.5808 67.33 16.0988C66.9297 16.5462 66.4411 16.6757 65.8642 16.4874C65.6522 16.4756 65.4815 16.4108 65.352 16.2931C65.2343 16.1754 65.1518 16.1106 65.1048 16.0988C65.0341 16.0753 64.934 15.987 64.8045 15.8339C64.5926 15.5513 64.4631 15.1334 64.416 14.58V14.1208C64.4513 14.0619 64.4513 13.7794 64.416 13.2731V13.1671C64.3453 12.8139 64.31 12.602 64.31 12.5313C64.31 12.4607 64.3218 12.3665 64.3453 12.2487C64.3689 12.131 64.3748 12.0604 64.363 12.0368C64.3512 12.0015 64.3453 11.9485 64.3453 11.8779V11.613L64.4336 10.6593C64.5631 10.2472 64.7044 9.8763 64.8575 9.54663C64.9046 9.34647 64.9929 9.18752 65.1224 9.06978C65.4168 8.75189 65.5757 8.56939 65.5993 8.52229C65.6817 8.34569 65.9878 8.2044 66.5176 8.09843L66.8179 8.11609C66.9356 8.11609 67.0416 8.13375 67.1358 8.16908C67.2299 8.19262 67.2947 8.2044 67.33 8.2044C67.4949 8.28682 67.6303 8.32802 67.7362 8.32802C67.8422 8.32802 68.0188 8.41044 68.2661 8.57528C68.3367 8.58705 68.5133 8.68713 68.7959 8.87551C69.102 9.07567 69.2786 9.18752 69.3257 9.21107L69.7849 9.37002C69.9144 9.47598 69.9792 9.53485 69.9792 9.54663C69.9792 9.5584 69.9497 9.88218 69.8909 10.518Z" fill="black"/>
    <path d="M77.9481 11.5246L77.8774 11.8779L77.8421 12.3017C77.8421 12.3959 77.8245 12.5137 77.7891 12.6549C77.7891 13.1377 77.7538 13.5027 77.6832 13.7499C77.6832 14.056 77.6361 14.421 77.5419 14.8449C77.5066 15.1981 77.4948 15.4454 77.5066 15.5867C77.4477 15.7044 77.4183 15.8104 77.4183 15.9046C77.4183 15.9516 77.4006 16.0753 77.3653 16.2754C77.33 16.4756 77.277 16.611 77.2063 16.6816C77.2063 16.8111 77.1828 16.923 77.1357 17.0172C77.065 17.1467 77.0121 17.2762 76.9767 17.4057C76.9532 17.547 76.9296 17.6294 76.9061 17.653C76.8943 17.6883 76.8884 17.7118 76.8884 17.7236L76.5882 18.2711C76.5882 18.2829 76.5293 18.3594 76.4116 18.5007C76.388 18.5831 76.3115 18.7067 76.182 18.8716C76.182 18.9187 75.9818 19.0659 75.5815 19.3131C75.452 19.4191 75.2931 19.4956 75.1047 19.5427L74.9457 19.6133C74.7691 19.7193 74.5513 19.7782 74.2923 19.7899C73.7742 19.8606 73.3916 19.8547 73.1443 19.7723L72.6851 19.6133V19.631C72.4968 19.5486 72.3319 19.4367 72.1906 19.2954C71.9316 19.1659 71.7609 19.0305 71.6785 18.8892C71.5961 18.7597 71.5195 18.536 71.4489 18.2181C71.4253 18.1004 71.4548 17.9473 71.5372 17.7589C71.6314 17.5823 71.755 17.4999 71.9081 17.5117C71.9434 17.5117 72.0906 17.5823 72.3496 17.7236C72.3731 17.7589 72.4968 17.8708 72.7205 18.0592C72.9795 18.3653 73.2503 18.5184 73.5329 18.5184C73.6388 18.5184 73.7154 18.5066 73.7625 18.483C73.8095 18.4713 73.945 18.4477 74.1687 18.4124C74.1333 18.3771 74.1451 18.3359 74.204 18.2888C74.2746 18.2535 74.3276 18.2299 74.3629 18.2181C74.4453 18.1946 74.516 18.1416 74.5749 18.0592L74.8045 17.8826C74.828 17.8472 74.9104 17.7648 75.0517 17.6353L75.2283 17.3881C75.2283 17.3056 75.2931 17.1702 75.4226 16.9819C75.4108 16.9465 75.4402 16.87 75.5109 16.7523C75.5109 16.7052 75.5227 16.6345 75.5462 16.5403L75.7052 15.8339L75.6875 15.7279C75.7464 15.5867 75.7758 15.4336 75.7758 15.2688L75.8994 14.7743L75.8288 14.7566L75.4932 15.3041C75.4932 15.3159 75.4756 15.3453 75.4402 15.3924C75.4049 15.4277 75.3578 15.4866 75.299 15.569L74.9634 16.0282L74.7868 16.1341C74.4807 16.3932 74.1392 16.4874 73.7625 16.4167C73.5976 16.3225 73.4446 16.2637 73.3033 16.2401C73.1738 16.2283 73.0442 16.1577 72.9147 16.0282C72.7617 15.9693 72.6145 15.8692 72.4732 15.7279C72.4261 15.6337 72.4026 15.5631 72.4026 15.516C72.4026 15.4571 72.3731 15.3629 72.3143 15.2334C72.1965 14.6212 72.1376 14.0914 72.1376 13.644C72.1259 13.6086 72.1259 13.4968 72.1376 13.3084C72.1612 13.1082 72.173 12.9787 72.173 12.9199C72.173 12.8492 72.1847 12.7609 72.2083 12.6549L72.2789 12.1075C72.3496 12.0133 72.4026 11.8367 72.4379 11.5776C72.4968 11.2833 72.6263 10.9124 72.8264 10.465L72.9147 10.2354L73.0737 9.97049C73.0737 9.85275 73.1208 9.6938 73.215 9.49364C73.3092 9.29349 73.368 9.17575 73.3916 9.14043C73.4151 9.1051 73.4563 9.05801 73.5152 8.99914C73.5741 8.94027 73.6329 8.87551 73.6918 8.80487C73.8449 8.66358 74.045 8.61649 74.2923 8.66358C74.5395 8.71068 74.722 8.78132 74.8398 8.87551C74.9693 8.95793 75.0046 9.13454 74.9457 9.40534C74.828 9.95871 74.7691 10.2413 74.7691 10.2531L74.6455 10.5886C74.6455 10.7417 74.6219 10.8653 74.5749 10.9595C74.5749 11.0066 74.5278 11.2892 74.4336 11.8072C74.3512 11.9603 74.3099 12.0721 74.3099 12.1428C74.3099 12.237 74.2805 12.3724 74.2216 12.549C74.1628 12.7138 74.1216 12.8433 74.098 12.9375C74.0627 13.1612 74.0391 13.3555 74.0274 13.5203C74.0156 13.6852 73.9685 13.8441 73.8861 13.9972C73.9096 13.9972 73.9096 14.0678 73.8861 14.2091V14.3857C73.8743 14.527 73.9744 14.6094 74.1863 14.633C74.3982 14.6565 74.6043 14.4976 74.8045 14.1561C75.087 13.5674 75.246 13.2378 75.2813 13.1671L75.4226 12.9022L75.4756 12.7432C75.558 12.6844 75.6286 12.6137 75.6875 12.5313L75.7935 12.2664C75.7935 12.2311 76.0289 11.507 76.4999 10.0941L76.6059 9.63493C76.6059 9.36413 76.6588 9.15809 76.7648 9.0168C76.8825 8.87551 76.9944 8.79898 77.1004 8.78721C77.277 8.78721 77.5537 8.86963 77.9304 9.03446C78.0717 9.03446 78.16 9.19341 78.1953 9.5113C78.1953 9.72324 78.1482 10.0176 78.0541 10.3943C78.0187 10.6181 78.0011 10.8123 78.0011 10.9772C77.9658 11.1184 77.9481 11.3009 77.9481 11.5246Z" fill="black"/>
    <path d="M82.8934 10.6769L82.8051 10.518C82.6638 10.518 82.3989 10.8064 82.0104 11.3834C81.5512 12.0074 81.2274 12.6255 81.039 13.2378C80.9095 13.6027 80.833 13.903 80.8094 14.1385C80.8094 14.4799 80.8801 14.7036 81.0214 14.8096C81.0802 14.8096 81.145 14.7684 81.2156 14.6859C81.298 14.6035 81.3451 14.5447 81.3569 14.5093C81.4393 14.4622 81.5453 14.3268 81.6748 14.1031C81.8279 13.8794 81.9103 13.7617 81.9221 13.7499L82.081 13.4144L82.3812 12.9022C82.3577 12.9022 82.393 12.7668 82.4872 12.496C82.6285 12.2487 82.705 12.0604 82.7168 11.9308L82.8934 10.6769ZM79.167 14.9509C79.1316 14.4446 79.1375 14.056 79.1846 13.7852C79.4554 12.7962 79.6674 12.0427 79.8204 11.5246C79.8204 11.5129 79.8616 11.3657 79.944 11.0831C80.0736 10.671 80.1913 10.4002 80.2973 10.2707C80.2973 10.2354 80.3444 10.1412 80.4386 9.98815C80.4386 9.88218 80.5681 9.69969 80.8271 9.44066L81.0214 9.22873C81.2333 9.04035 81.5335 8.94616 81.9221 8.94616C82.0634 8.92261 82.2282 8.92849 82.4166 8.96382C82.758 9.11688 83.1466 9.34647 83.5822 9.65259L83.7588 9.75856C83.853 9.7821 83.9413 9.81154 84.0237 9.84686C84.0708 9.84686 84.1709 9.87041 84.3239 9.91751L84.5535 10.0941C84.6595 10.1648 84.7243 10.2648 84.7478 10.3943C84.6772 10.465 84.6418 10.6946 84.6418 11.0831C84.5947 11.5894 84.6301 12.184 84.7478 12.8669C84.7949 13.5027 84.9068 14.1738 85.0834 14.8802C85.0834 14.9391 85.1246 15.098 85.207 15.3571C85.3012 15.6161 85.3424 15.7809 85.3306 15.8516C85.3306 16.1459 85.0539 16.2931 84.5006 16.2931C83.959 16.2578 83.5822 16.0223 83.3703 15.5867C83.3585 15.5396 83.3173 15.4454 83.2466 15.3041C83.1053 15.1628 83.0288 15.0451 83.017 14.9509L82.9817 14.7036C82.9346 14.6683 82.9052 14.6212 82.8934 14.5623C82.7521 14.7625 82.5755 14.9685 82.3636 15.1805L81.9927 15.7633L81.8514 15.9046C81.8396 15.9516 81.716 16.0046 81.4805 16.0635C81.2451 16.1341 81.0743 16.1459 80.9684 16.0988C80.9095 16.0988 80.8271 16.087 80.7211 16.0635L79.944 15.7456C79.7674 15.6985 79.6379 15.6161 79.5555 15.4983C79.4024 15.4042 79.3259 15.3512 79.3259 15.3394C79.2082 15.1392 79.1552 15.0097 79.167 14.9509Z" fill="black"/>
    </svg>
    